<svg width="284" height="36" viewBox="0 0 284 36" fill="none" xmlns="http://www.w3.org/2000/svg">
<path d="M14.7031 18.0078L23.6094 0.875H28.7188L16.9531 22.2734V35H12.4531V22.2734L0.6875 0.875H5.84375L14.7031 18.0078ZM53.3984 20.4453C53.3984 25.5234 52.5312 29.2969 50.7969 31.7656C49.0625 34.2344 46.3516 35.4688 42.6641 35.4688C39.0234 35.4688 36.3281 34.2656 34.5781 31.8594C32.8281 29.4375 31.9219 25.8281 31.8594 21.0312V15.2422C31.8594 10.2266 32.7266 6.5 34.4609 4.0625C36.1953 1.625 38.9141 0.40625 42.6172 0.40625C46.2891 0.40625 48.9922 1.58594 50.7266 3.94531C52.4609 6.28906 53.3516 9.91406 53.3984 14.8203V20.4453ZM49.0625 14.5156C49.0625 10.8438 48.5469 8.17188 47.5156 6.5C46.4844 4.8125 44.8516 3.96875 42.6172 3.96875C40.3984 3.96875 38.7812 4.80469 37.7656 6.47656C36.75 8.14844 36.2266 10.7188 36.1953 14.1875V21.125C36.1953 24.8125 36.7266 27.5391 37.7891 29.3047C38.8672 31.0547 40.4922 31.9297 42.6641 31.9297C44.8047 31.9297 46.3906 31.1016 47.4219 29.4453C48.4688 27.7891 49.0156 25.1797 49.0625 21.6172V14.5156ZM84.1016 0.875V24.0781C84.0859 27.2969 83.0703 29.9297 81.0547 31.9766C79.0547 34.0234 76.3359 35.1719 72.8984 35.4219L71.7031 35.4688C67.9688 35.4688 64.9922 34.4609 62.7734 32.4453C60.5547 30.4297 59.4297 27.6562 59.3984 24.125V0.875H63.8516V23.9844C63.8516 26.4531 64.5312 28.375 65.8906 29.75C67.25 31.1094 69.1875 31.7891 71.7031 31.7891C74.25 31.7891 76.1953 31.1094 77.5391 29.75C78.8984 28.3906 79.5781 26.4766 79.5781 24.0078V0.875H84.1016ZM103.719 21.1953H95.7031V35H91.1797V0.875H102.477C106.32 0.875 109.273 1.75 111.336 3.5C113.414 5.25 114.453 7.79688 114.453 11.1406C114.453 13.2656 113.875 15.1172 112.719 16.6953C111.578 18.2734 109.984 19.4531 107.938 20.2344L115.953 34.7188V35H111.125L103.719 21.1953ZM95.7031 17.5156H102.617C104.852 17.5156 106.625 16.9375 107.938 15.7812C109.266 14.625 109.93 13.0781 109.93 11.1406C109.93 9.03125 109.297 7.41406 108.031 6.28906C106.781 5.16406 104.969 4.59375 102.594 4.57812H95.7031V17.5156Z" fill="black"/>
<path d="M119.398 35V0.875H130.391C133.406 0.875 136.117 1.5625 138.523 2.9375C140.93 4.29688 142.805 6.22656 144.148 8.72656C145.508 11.2109 146.195 14 146.211 17.0938V18.6641C146.211 21.7891 145.547 24.5938 144.219 27.0781C142.906 29.5469 141.047 31.4844 138.641 32.8906C136.25 34.2812 133.578 34.9844 130.625 35H119.398ZM127.625 7.22656V28.6719H130.484C132.844 28.6719 134.656 27.8359 135.922 26.1641C137.188 24.4766 137.82 21.9766 137.82 18.6641V17.1875C137.82 13.8906 137.188 11.4062 135.922 9.73438C134.656 8.0625 132.812 7.22656 130.391 7.22656H127.625ZM171.594 20.5391H158.656V28.6719H173.938V35H150.43V0.875H173.984V7.22656H158.656V14.4219H171.594V20.5391ZM194.891 25.9297C194.891 24.7266 194.461 23.7891 193.602 23.1172C192.758 22.4453 191.266 21.75 189.125 21.0312C186.984 20.3125 185.234 19.6172 183.875 18.9453C179.453 16.7734 177.242 13.7891 177.242 9.99219C177.242 8.10156 177.789 6.4375 178.883 5C179.992 3.54688 181.555 2.42188 183.57 1.625C185.586 0.8125 187.852 0.40625 190.367 0.40625C192.82 0.40625 195.016 0.84375 196.953 1.71875C198.906 2.59375 200.422 3.84375 201.5 5.46875C202.578 7.07812 203.117 8.92188 203.117 11H194.914C194.914 9.60938 194.484 8.53125 193.625 7.76562C192.781 7 191.633 6.61719 190.18 6.61719C188.711 6.61719 187.547 6.94531 186.688 7.60156C185.844 8.24219 185.422 9.0625 185.422 10.0625C185.422 10.9375 185.891 11.7344 186.828 12.4531C187.766 13.1562 189.414 13.8906 191.773 14.6562C194.133 15.4062 196.07 16.2188 197.586 17.0938C201.273 19.2188 203.117 22.1484 203.117 25.8828C203.117 28.8672 201.992 31.2109 199.742 32.9141C197.492 34.6172 194.406 35.4688 190.484 35.4688C187.719 35.4688 185.211 34.9766 182.961 33.9922C180.727 32.9922 179.039 31.6328 177.898 29.9141C176.773 28.1797 176.211 26.1875 176.211 23.9375H184.461C184.461 25.7656 184.93 27.1172 185.867 27.9922C186.82 28.8516 188.359 29.2812 190.484 29.2812C191.844 29.2812 192.914 28.9922 193.695 28.4141C194.492 27.8203 194.891 26.9922 194.891 25.9297ZM216.102 35H207.898V0.875H216.102V35ZM249.758 30.7812C248.492 32.1875 246.641 33.3203 244.203 34.1797C241.766 35.0391 239.094 35.4688 236.188 35.4688C231.719 35.4688 228.148 34.1016 225.477 31.3672C222.805 28.6328 221.375 24.8281 221.188 19.9531L221.164 17C221.164 13.6406 221.758 10.7109 222.945 8.21094C224.133 5.69531 225.828 3.76562 228.031 2.42188C230.25 1.0625 232.812 0.382812 235.719 0.382812C239.969 0.382812 243.266 1.35938 245.609 3.3125C247.969 5.25 249.344 8.14844 249.734 12.0078H241.812C241.531 10.1016 240.922 8.74219 239.984 7.92969C239.047 7.11719 237.719 6.71094 236 6.71094C233.938 6.71094 232.344 7.58594 231.219 9.33594C230.094 11.0859 229.523 13.5859 229.508 16.8359V18.8984C229.508 22.3047 230.086 24.8672 231.242 26.5859C232.414 28.2891 234.25 29.1406 236.75 29.1406C238.891 29.1406 240.484 28.6641 241.531 27.7109V22.4141H235.812V16.7656H249.758V30.7812ZM283.039 35H274.859L262.766 13.7656V35H254.539V0.875H262.766L274.836 22.1094V0.875H283.039V35Z" fill="#46D12F"/>
</svg>
